<svg xmlns="http://www.w3.org/2000/svg" viewBox="0 0 260 90" role="img" aria-label="Microsoft Azure">
  <defs>
    <!-- Official Microsoft Azure icon gradients (from Microsoft brand assets) -->
    <linearGradient id="az-grad-1" x1="-1032.172" x2="-1059.213" y1="145.312" y2="65.426"
      gradientTransform="matrix(1 0 0 -1 1075 158)" gradientUnits="userSpaceOnUse">
      <stop offset="0" stop-color="#114a8b"/>
      <stop offset="1" stop-color="#0669bc"/>
    </linearGradient>
    <linearGradient id="az-grad-shadow" x1="-1023.725" x2="-1029.98" y1="108.083" y2="105.968"
      gradientTransform="matrix(1 0 0 -1 1075 158)" gradientUnits="userSpaceOnUse">
      <stop offset="0" stop-opacity=".3"/>
      <stop offset=".071" stop-opacity=".2"/>
      <stop offset=".321" stop-opacity=".1"/>
      <stop offset=".623" stop-opacity=".05"/>
      <stop offset="1" stop-opacity="0"/>
    </linearGradient>
    <linearGradient id="az-grad-2" x1="-1027.165" x2="-997.482" y1="147.642" y2="68.561"
      gradientTransform="matrix(1 0 0 -1 1075 158)" gradientUnits="userSpaceOnUse">
      <stop offset="0" stop-color="#3ccbf4"/>
      <stop offset="1" stop-color="#2892df"/>
    </linearGradient>
  </defs>

  <!-- Official Azure icon, scaled and centered perfectly with the text -->
  <g transform="translate(52, 10) scale(0.72)">
    <path fill="url(#az-grad-1)" d="M33.338 6.544h26.038l-27.03 80.087a4.152 4.152 0 0 1-3.933 2.824H8.149a4.145 4.145 0 0 1-3.928-5.47L29.404 9.368a4.152 4.152 0 0 1 3.934-2.825z"/>
    <path fill="#0078d4" d="M71.175 60.261h-41.29a1.911 1.911 0 0 0-1.305 3.309l26.532 24.764a4.171 4.171 0 0 0 2.846 1.121h23.38z"/>
    <path fill="url(#az-grad-shadow)" d="M33.338 6.544a4.118 4.118 0 0 0-3.943 2.879L4.252 83.917a4.14 4.14 0 0 0 3.908 5.538h20.787a4.443 4.443 0 0 0 3.41-2.9l5.014-14.777 17.91 16.705a4.237 4.237 0 0 0 2.666.972H81.24L71.024 60.261l-29.781.007L59.47 6.544z"/>
    <path fill="url(#az-grad-2)" d="M66.595 9.364a4.145 4.145 0 0 0-3.928-2.82H33.648a4.146 4.146 0 0 1 3.928 2.82l25.184 74.62a4.146 4.146 0 0 1-3.928 5.472h29.02a4.146 4.146 0 0 0 3.927-5.472z"/>
  </g>

  <!-- Microsoft wordmark -->
  <text x="133" y="36"
    font-family="'Segoe UI', 'Helvetica Neue', Arial, sans-serif"
    font-size="12.5"
    font-weight="300"
    letter-spacing="0.02em"
    fill="#5E5E5E">Microsoft</text>

  <!-- Azure wordmark (Official weight and color) -->
  <text x="133" y="64"
    font-family="'Segoe UI', 'Helvetica Neue', Arial, sans-serif"
    font-size="25"
    font-weight="600"
    letter-spacing="-0.01em"
    fill="#0078d4">Azure</text>
</svg>